<svg xmlns="http://www.w3.org/2000/svg" width="1000" height="450"><rect width="100%" height="100%" style="fill: white;"></rect><text transform="translate(150,0)" x="50" y="50" font-size="24px"> status chart</text><g transform="translate(100,100)"></g><g transform="translate(50,410)" fill="none" font-size="10" font-family="sans-serif" text-anchor="middle"><path class="domain" stroke="currentColor" d="M0.5,6V0.5H990.5V6"></path><g class="tick" opacity="1" transform="translate(203.8235294117647,0)"><line stroke="currentColor" y2="6"></line><text fill="currentColor" y="9" dy="0.71em">Open</text></g><g class="tick" opacity="1" transform="translate(494.99999999999994,0)"><line stroke="currentColor" y2="6"></line><text fill="currentColor" y="9" dy="0.71em">Closed</text></g><g class="tick" opacity="1" transform="translate(786.1764705882352,0)"><line stroke="currentColor" y2="6"></line><text fill="currentColor" y="9" dy="0.71em">Pending</text></g><text y="30" x="490" text-anchor="end" stroke="black" font-size="20px">status</text></g><g transform="translate(50,0)" fill="none" font-size="10" font-family="sans-serif" text-anchor="end"><path class="domain" stroke="currentColor" d="M-6,410.5H0.5V0.5H-6"></path><g class="tick" opacity="1" transform="translate(0,410.5)"><line stroke="currentColor" x2="-6"></line><text fill="currentColor" x="-9" dy="0.32em">$0</text></g><g class="tick" opacity="1" transform="translate(0,331.6538461538462)"><line stroke="currentColor" x2="-6"></line><text fill="currentColor" x="-9" dy="0.32em">$0.5</text></g><g class="tick" opacity="1" transform="translate(0,252.80769230769232)"><line stroke="currentColor" x2="-6"></line><text fill="currentColor" x="-9" dy="0.32em">$1</text></g><g class="tick" opacity="1" transform="translate(0,173.96153846153848)"><line stroke="currentColor" x2="-6"></line><text fill="currentColor" x="-9" dy="0.32em">$1.5</text></g><g class="tick" opacity="1" transform="translate(0,95.11538461538464)"><line stroke="currentColor" x2="-6"></line><text fill="currentColor" x="-9" dy="0.32em">$2</text></g><g class="tick" opacity="1" transform="translate(0,16.269230769230802)"><line stroke="currentColor" x2="-6"></line><text fill="currentColor" x="-9" dy="0.32em">$2.5</text></g><text transform="rotate(-90)" y="150" x="-150" dy="-9.1em" text-anchor="end" stroke="black" font-size="20px">values</text></g><rect transform="translate(50,0)" class="bar" x="116.47058823529414" y="252.30769230769232" width="174.70588235294113" height="157.69230769230768" style="fill: purple;"></rect><rect transform="translate(50,0)" class="bar" x="407.6470588235294" y="94.61538461538464" width="174.70588235294113" height="315.38461538461536" style="fill: purple;"></rect><rect transform="translate(50,0)" class="bar" x="698.8235294117646" y="410" width="174.70588235294113" height="0" style="fill: purple;"></rect></svg>